<svg width="760" height="180" viewBox="0 0 760 180" fill="none" xmlns="http://www.w3.org/2000/svg">
  <rect width="180" height="180" rx="42" fill="#F5F0E8"/>
  <rect x="15" y="15" width="150" height="150" rx="29" stroke="#151515" stroke-opacity=".10" stroke-width="4"/>
  <path d="M110 42H136V100C136 126 118 142 91 142C66 142 49 129 45 107L69 100C72 113 80 120 92 120C104 120 110 112 110 98V42Z" fill="#151515"/>
  <path d="M54 42H95V65H54V42Z" fill="#151515"/>
  <path d="M42 90H88" stroke="#C7A46A" stroke-width="8" stroke-linecap="round"/>
  <path d="M42 90H73" stroke="#151515" stroke-opacity=".16" stroke-width="8" stroke-linecap="round"/>
  <path d="M250 122V58H269V122H250Z" fill="#F5F0E8"/>
  <path d="M285 122V58H305L333 91V58H351V122H333L303 87V122H285Z" fill="#F5F0E8"/>
  <path d="M366 122V58H414V73H385V83H411V97H385V107H416V122H366Z" fill="#F5F0E8"/>
  <path d="M430 122V58H449V105H478V122H430Z" fill="#F5F0E8"/>
  <path d="M492 122V58H511V122H492Z" fill="#F5F0E8"/>
  <path d="M527 122V58H547L575 91V58H593V122H575L545 87V122H527Z" fill="#F5F0E8"/>
  <path d="M609 122V58H657V73H628V83H654V97H628V107H659V122H609Z" fill="#F5F0E8"/>
  <path d="M246 146H570" stroke="#C7A46A" stroke-width="5" stroke-linecap="round"/>
</svg>
